{
  "accessors": [
    {
      "bufferView": 2,
      "componentType": 5126,
      "count": 1231,
      "max": [
        0.08587206900119781,
        1.6379107236862183,
        -0.03707779943943024
      ],
      "min": [
        -0.08669203519821167,
        1.6181021928787231,
        -0.0870811864733696
      ],
      "type": "VEC3"
    },
    {
      "bufferView": 2,
      "byteOffset": 14772,
      "componentType": 5126,
      "count": 1231,
      "type": "VEC3"
    },
    {
      "bufferView": 1,
      "componentType": 5126,
      "count": 1231,
      "type": "VEC2"
    },
    {
      "bufferView": 0,
      "componentType": 5125,
      "count": 6036,
      "type": "SCALAR"
    },
    {
      "bufferView": 2,
      "byteOffset": 29544,
      "componentType": 5126,
      "count": 1682,
      "max": [
        0.08620669692754745,
        1.636293649673462,
        0.04639703407883644
      ],
      "min": [
        -0.08711935579776764,
        1.5608046054840088,
        -0.042142901569604874
      ],
      "type": "VEC3"
    },
    {
      "bufferView": 2,
      "byteOffset": 49728,
      "componentType": 5126,
      "count": 1682,
      "type": "VEC3"
    },
    {
      "bufferView": 1,
      "byteOffset": 9848,
      "componentType": 5126,
      "count": 1682,
      "type": "VEC2"
    },
    {
      "bufferView": 0,
      "byteOffset": 24144,
      "componentType": 5125,
      "count": 8322,
      "type": "SCALAR"
    },
    {
      "bufferView": 2,
      "byteOffset": 69912,
      "componentType": 5126,
      "count": 22320,
      "max": [
        0.2065085917711258,
        1.6276650428771973,
        0.1597357988357544
      ],
      "min": [
        -0.20776261389255524,
        0.9531669020652771,
        -0.04202919453382492
      ],
      "type": "VEC3"
    },
    {
      "bufferView": 2,
      "byteOffset": 337752,
      "componentType": 5126,
      "count": 22320,
      "type": "VEC3"
    },
    {
      "bufferView": 1,
      "byteOffset": 23304,
      "componentType": 5126,
      "count": 22320,
      "type": "VEC2"
    },
    {
      "bufferView": 0,
      "byteOffset": 57432,
      "componentType": 5125,
      "count": 132402,
      "type": "SCALAR"
    },
    {
      "bufferView": 2,
      "byteOffset": 605592,
      "componentType": 5126,
      "count": 22320,
      "max": [
        0.20620815455913544,
        1.6272343397140503,
        0.15923799574375153
      ],
      "min": [
        -0.2074778825044632,
        0.9531122446060181,
        -0.042154423892498016
      ],
      "type": "VEC3"
    },
    {
      "bufferView": 2,
      "byteOffset": 873432,
      "componentType": 5126,
      "count": 22320,
      "type": "VEC3"
    },
    {
      "bufferView": 1,
      "byteOffset": 201864,
      "componentType": 5126,
      "count": 22320,
      "type": "VEC2"
    },
    {
      "bufferView": 0,
      "byteOffset": 587040,
      "componentType": 5125,
      "count": 132402,
      "type": "SCALAR"
    },
    {
      "bufferView": 2,
      "byteOffset": 1141272,
      "componentType": 5126,
      "count": 3612,
      "max": [
        0.2065085917711258,
        1.6276650428771973,
        0.1597357988357544
      ],
      "min": [
        -0.20776261389255524,
        0.9531122446060181,
        -0.042154423892498016
      ],
      "type": "VEC3"
    },
    {
      "bufferView": 2,
      "byteOffset": 1184616,
      "componentType": 5126,
      "count": 3612,
      "type": "VEC3"
    },
    {
      "bufferView": 1,
      "byteOffset": 380424,
      "componentType": 5126,
      "count": 3612,
      "type": "VEC2"
    },
    {
      "bufferView": 0,
      "byteOffset": 1116648,
      "componentType": 5125,
      "count": 18144,
      "type": "SCALAR"
    },
    {
      "bufferView": 2,
      "byteOffset": 1227960,
      "componentType": 5126,
      "count": 24268,
      "max": [
        0.2079797089099884,
        1.629104495048523,
        0.008685611188411713
      ],
      "min": [
        -0.20775645971298218,
        0.9362870454788208,
        -0.14934851229190826
      ],
      "type": "VEC3"
    },
    {
      "bufferView": 2,
      "byteOffset": 1519176,
      "componentType": 5126,
      "count": 24268,
      "type": "VEC3"
    },
    {
      "bufferView": 1,
      "byteOffset": 409320,
      "componentType": 5126,
      "count": 24268,
      "type": "VEC2"
    },
    {
      "bufferView": 0,
      "byteOffset": 1189224,
      "componentType": 5125,
      "count": 144126,
      "type": "SCALAR"
    },
    {
      "bufferView": 2,
      "byteOffset": 1810392,
      "componentType": 5126,
      "count": 24268,
      "max": [
        0.2076701521873474,
        1.6286565065383911,
        0.0087042897939682
      ],
      "min": [
        -0.20746342837810516,
        0.9363815188407898,
        -0.14884860813617706
      ],
      "type": "VEC3"
    },
    {
      "bufferView": 2,
      "byteOffset": 2101608,
      "componentType": 5126,
      "count": 24268,
      "type": "VEC3"
    },
    {
      "bufferView": 1,
      "byteOffset": 603464,
      "componentType": 5126,
      "count": 24268,
      "type": "VEC2"
    },
    {
      "bufferView": 0,
      "byteOffset": 1765728,
      "componentType": 5125,
      "count": 144126,
      "type": "SCALAR"
    },
    {
      "bufferView": 2,
      "byteOffset": 2392824,
      "componentType": 5126,
      "count": 3528,
      "max": [
        0.2079797089099884,
        1.629104495048523,
        0.0087042897939682
      ],
      "min": [
        -0.20775645971298218,
        0.9362870454788208,
        -0.12620921432971954
      ],
      "type": "VEC3"
    },
    {
      "bufferView": 2,
      "byteOffset": 2435160,
      "componentType": 5126,
      "count": 3528,
      "type": "VEC3"
    },
    {
      "bufferView": 1,
      "byteOffset": 797608,
      "componentType": 5126,
      "count": 3528,
      "type": "VEC2"
    },
    {
      "bufferView": 0,
      "byteOffset": 2342232,
      "componentType": 5125,
      "count": 17712,
      "type": "SCALAR"
    },
    {
      "bufferView": 2,
      "byteOffset": 2477496,
      "componentType": 5126,
      "count": 9679,
      "max": [
        0.3258504271507263,
        1.5755043029785156,
        0.043447691947221756
      ],
      "min": [
        0.1786404252052307,
        1.3577498197555542,
        -0.11446479707956314
      ],
      "type": "VEC3"
    },
    {
      "bufferView": 2,
      "byteOffset": 2593644,
      "componentType": 5126,
      "count": 9679,
      "type": "VEC3"
    },
    {
      "bufferView": 1,
      "byteOffset": 825832,
      "componentType": 5126,
      "count": 9679,
      "type": "VEC2"
    },
    {
      "bufferView": 0,
      "byteOffset": 2413080,
      "componentType": 5125,
      "count": 55404,
      "type": "SCALAR"
    },
    {
      "bufferView": 2,
      "byteOffset": 2709792,
      "componentType": 5126,
      "count": 9635,
      "max": [
        -0.1801571100950241,
        1.5748897790908813,
        0.0432635173201561
      ],
      "min": [
        -0.3271026909351349,
        1.3555173873901367,
        -0.11441069096326828
      ],
      "type": "VEC3"
    },
    {
      "bufferView": 2,
      "byteOffset": 2825412,
      "componentType": 5126,
      "count": 9635,
      "type": "VEC3"
    },
    {
      "bufferView": 1,
      "byteOffset": 903264,
      "componentType": 5126,
      "count": 9635,
      "type": "VEC2"
    },
    {
      "bufferView": 0,
      "byteOffset": 2634696,
      "componentType": 5125,
      "count": 55140,
      "type": "SCALAR"
    }
  ],
  "asset": {
    "generator": "fab-model-conversion",
    "version": "2.0"
  },
  "bufferViews": [
    {
      "buffer": 0,
      "byteLength": 2855256,
      "target": 34963
    },
    {
      "buffer": 0,
      "byteLength": 980344,
      "byteOffset": 2855256,
      "byteStride": 8,
      "target": 34962
    },
    {
      "buffer": 0,
      "byteLength": 2941032,
      "byteOffset": 3835600,
      "byteStride": 12,
      "target": 34962
    }
  ],
  "buffers": [
    {
      "byteLength": 6776632,
      "uri": "scene.bin"
    }
  ],
  "materials": [
    {
      "name": "Body_FRONT_2664",
      "pbrMetallicRoughness": {
        "metallicFactor": 0.0,
        "roughnessFactor": 0.5
      }
    },
    {
      "name": "Sleeves_FRONT_2669",
      "pbrMetallicRoughness": {
        "metallicFactor": 0.0,
        "roughnessFactor": 0.5
      }
    }
  ],
  "meshes": [
    {
      "name": "Object_0",
      "primitives": [
        {
          "attributes": {
            "NORMAL": 1,
            "POSITION": 0,
            "TEXCOORD_0": 2
          },
          "indices": 3,
          "material": 0,
          "mode": 4
        }
      ]
    },
    {
      "name": "Object_1",
      "primitives": [
        {
          "attributes": {
            "NORMAL": 5,
            "POSITION": 4,
            "TEXCOORD_0": 6
          },
          "indices": 7,
          "material": 0,
          "mode": 4
        }
      ]
    },
    {
      "name": "Object_2",
      "primitives": [
        {
          "attributes": {
            "NORMAL": 9,
            "POSITION": 8,
            "TEXCOORD_0": 10
          },
          "indices": 11,
          "material": 0,
          "mode": 4
        }
      ]
    },
    {
      "name": "Object_3",
      "primitives": [
        {
          "attributes": {
            "NORMAL": 13,
            "POSITION": 12,
            "TEXCOORD_0": 14
          },
          "indices": 15,
          "material": 0,
          "mode": 4
        }
      ]
    },
    {
      "name": "Object_4",
      "primitives": [
        {
          "attributes": {
            "NORMAL": 17,
            "POSITION": 16,
            "TEXCOORD_0": 18
          },
          "indices": 19,
          "material": 0,
          "mode": 4
        }
      ]
    },
    {
      "name": "Object_5",
      "primitives": [
        {
          "attributes": {
            "NORMAL": 21,
            "POSITION": 20,
            "TEXCOORD_0": 22
          },
          "indices": 23,
          "material": 0,
          "mode": 4
        }
      ]
    },
    {
      "name": "Object_6",
      "primitives": [
        {
          "attributes": {
            "NORMAL": 25,
            "POSITION": 24,
            "TEXCOORD_0": 26
          },
          "indices": 27,
          "material": 0,
          "mode": 4
        }
      ]
    },
    {
      "name": "Object_7",
      "primitives": [
        {
          "attributes": {
            "NORMAL": 29,
            "POSITION": 28,
            "TEXCOORD_0": 30
          },
          "indices": 31,
          "material": 0,
          "mode": 4
        }
      ]
    },
    {
      "name": "Object_8",
      "primitives": [
        {
          "attributes": {
            "NORMAL": 33,
            "POSITION": 32,
            "TEXCOORD_0": 34
          },
          "indices": 35,
          "material": 1,
          "mode": 4
        }
      ]
    },
    {
      "name": "Object_9",
      "primitives": [
        {
          "attributes": {
            "NORMAL": 37,
            "POSITION": 36,
            "TEXCOORD_0": 38
          },
          "indices": 39,
          "material": 1,
          "mode": 4
        }
      ]
    }
  ],
  "nodes": [
    {
      "children": [
        1
      ],
      "matrix": [
        1.0,
        0.0,
        0.0,
        0.0,
        0.0,
        2.220446049250313e-16,
        -1.0,
        0.0,
        0.0,
        1.0,
        2.220446049250313e-16,
        0.0,
        0.0,
        0.0,
        0.0,
        1.0
      ],
      "name": "Sketchfab_model"
    },
    {
      "children": [
        2
      ],
      "name": "root"
    },
    {
      "children": [
        3
      ],
      "matrix": [
        1.0,
        0.0,
        0.0,
        0.0,
        0.0,
        2.220446049250313e-16,
        1.0,
        0.0,
        0.0,
        -1.0,
        2.220446049250313e-16,
        0.0,
        0.0,
        0.0,
        0.0,
        1.0
      ],
      "name": "GLTF_SceneRootNode"
    },
    {
      "children": [
        4
      ],
      "name": "T_shirt_gltf.zip_Scene_Node_0"
    },
    {
      "children": [
        5,
        7,
        9,
        13,
        17,
        19
      ],
      "name": "Cloth_1"
    },
    {
      "children": [
        6
      ],
      "name": "Ribbing_Node_2"
    },
    {
      "mesh": 0,
      "name": "Object_6"
    },
    {
      "children": [
        8
      ],
      "name": "Ribbing_Node_3"
    },
    {
      "mesh": 1,
      "name": "Object_8"
    },
    {
      "children": [
        10,
        11,
        12
      ],
      "name": "Body_Front_Node_4"
    },
    {
      "mesh": 2,
      "name": "Object_10"
    },
    {
      "mesh": 3,
      "name": "Object_11"
    },
    {
      "mesh": 4,
      "name": "Object_12"
    },
    {
      "children": [
        14,
        15,
        16
      ],
      "name": "Body_Back_Node_5"
    },
    {
      "mesh": 5,
      "name": "Object_14"
    },
    {
      "mesh": 6,
      "name": "Object_15"
    },
    {
      "mesh": 7,
      "name": "Object_16"
    },
    {
      "children": [
        18
      ],
      "name": "Sleeves_Node_6"
    },
    {
      "mesh": 8,
      "name": "Object_18"
    },
    {
      "children": [
        20
      ],
      "name": "Sleeves_Node_7"
    },
    {
      "mesh": 9,
      "name": "Object_20"
    }
  ],
  "scene": 0,
  "scenes": [
    {
      "name": "Sketchfab_Scene",
      "nodes": [
        0
      ]
    }
  ]
}
